<?xml version="1.0" encoding="UTF-8" standalone="no"?>
<!-- Created with Inkscape (http://www.inkscape.org/) -->

<svg
   xmlns:dc="http://purl.org/dc/elements/1.1/"
   xmlns:cc="http://creativecommons.org/ns#"
   xmlns:rdf="http://www.w3.org/1999/02/22-rdf-syntax-ns#"
   xmlns:svg="http://www.w3.org/2000/svg"
   xmlns="http://www.w3.org/2000/svg"
   xmlns:sodipodi="http://sodipodi.sourceforge.net/DTD/sodipodi-0.dtd"
   xmlns:inkscape="http://www.inkscape.org/namespaces/inkscape"
   width="744.09448819"
   height="1052.3622047"
   id="svg2"
   version="1.1"
   inkscape:version="0.48.2 r9819"
   sodipodi:docname="New document 1">
  <defs
     id="defs4" />
  <sodipodi:namedview
     id="base"
     pagecolor="#ffffff"
     bordercolor="#666666"
     borderopacity="1.0"
     inkscape:pageopacity="0.0"
     inkscape:pageshadow="2"
     inkscape:zoom="1.0855504"
     inkscape:cx="-1415.6593"
     inkscape:cy="3568.0315"
     inkscape:document-units="px"
     inkscape:current-layer="layer12"
     showgrid="false"
     showguides="true"
     inkscape:guide-bbox="true"
     inkscape:window-width="1680"
     inkscape:window-height="954"
     inkscape:window-x="0"
     inkscape:window-y="0"
     inkscape:window-maximized="1" />
  <metadata
     id="metadata7">
    <rdf:RDF>
      <cc:Work
         rdf:about="">
        <dc:format>image/svg+xml</dc:format>
        <dc:type
           rdf:resource="http://purl.org/dc/dcmitype/StillImage" />
        <dc:title></dc:title>
      </cc:Work>
    </rdf:RDF>
  </metadata>
  <g
     inkscape:groupmode="layer"
     id="layer12"
     inkscape:label="StarOne"
     style="display:inline">
    <path
       style="fill:#ff0000;stroke:none"
       d="m -1861.777,-2588.5735 28.6301,-58.8962 -23.7221,-49.0803 55.6243,-3.272 43.3542,-50.7162 5.726,55.6242 49.0802,17.1781 -52.3522,38.4462 -8.998,61.3503 -40.0822,-32.7202 z"
       id="path3884"
       inkscape:connector-curvature="0"
       inkscape:export-filename="/Users/psenger/Desktop/Epping Twlight Market Photos/NewLogo.png"
       inkscape:export-xdpi="600"
       inkscape:export-ydpi="600" />
  </g>
  <g
     inkscape:groupmode="layer"
     id="layer13"
     inkscape:label="StarTwo"
     style="display:inline">
    <path
       style="fill:none;stroke:#ff0000;stroke-width:3;stroke-linecap:butt;stroke-linejoin:miter;stroke-miterlimit:4;stroke-opacity:1;stroke-dasharray:none"
       d="m -1632.7359,-2694.096 12.27,-26.9941 -16.36,-26.1761 29.4481,4.908 22.0861,-21.2681 6.5441,28.6301 26.9941,8.9981 -24.5401,14.724 -2.454,30.2662 -23.7222,-18.8141 z"
       id="path3887"
       inkscape:connector-curvature="0"
       inkscape:export-filename="/Users/psenger/Desktop/Epping Twlight Market Photos/NewLogo.png"
       inkscape:export-xdpi="600"
       inkscape:export-ydpi="600" />
  </g>
  <g
     inkscape:groupmode="layer"
     id="layer7"
     inkscape:label="Five"
     style="display:inline">
    <path
       style="fill:#008080;stroke:none"
       d="m -1412.6928,-2748.9022 103.0685,404.9119 c 0,0 -41.9747,75.3682 -94.0705,77.7104 -52.954,2.3807 -89.9804,-58.8963 -89.9804,-58.8963 z"
       id="path3091"
       inkscape:connector-curvature="0"
       sodipodi:nodetypes="ccscc"
       inkscape:export-filename="/Users/psenger/Desktop/Epping Twlight Market Photos/NewLogo.png"
       inkscape:export-xdpi="600"
       inkscape:export-ydpi="600" />
  </g>
  <g
     inkscape:groupmode="layer"
     id="layer6"
     inkscape:label="Four"
     style="display:inline">
    <path
       style="fill:#00ffff;stroke:none"
       d="m -1625.3739,-2321.0862 c 0,0 28.9645,29.0675 48.2623,32.7202 19.2978,3.6527 38.9993,-2.7807 58.0782,-13.0881 19.0789,-10.3074 32.5319,-19.8819 50.7163,-49.0802 18.1844,-29.1983 32.7576,-87.1214 41.7182,-129.2446 8.9606,-42.1232 10.265,-76.0412 13.0881,-121.8826 2.8231,-45.8414 2.454,-152.9668 2.454,-152.9668 -8.3925,170.8563 -124.4077,294.8357 -214.3171,433.5421 z"
       id="path3088"
       inkscape:connector-curvature="0"
       sodipodi:nodetypes="czzzzzcc"
       inkscape:export-filename="/Users/psenger/Desktop/Epping Twlight Market Photos/NewLogo.png"
       inkscape:export-xdpi="600"
       inkscape:export-ydpi="600" />
  </g>
  <g
     inkscape:groupmode="layer"
     id="layer8"
     inkscape:label="Six"
     style="display:inline">
    <path
       sodipodi:nodetypes="czzzzzcc"
       inkscape:connector-curvature="0"
       id="path3094"
       d="m -1197.5419,-2323.5402 c 0,0 -28.9645,29.0675 -48.2623,32.7202 -19.2978,3.6527 -38.9993,-2.7807 -58.0782,-13.0881 -19.0789,-10.3074 -32.5319,-19.8819 -50.7163,-49.0802 -18.1844,-29.1983 -32.7576,-87.1214 -41.7182,-129.2446 -8.9606,-42.1232 -10.265,-76.0412 -13.0881,-121.8826 -2.8231,-45.8414 -2.3662,-148.4912 -2.3662,-148.4912 8.3925,170.8563 124.3199,290.3601 214.2293,429.0665 z"
       style="fill:#00ffff;stroke:none;display:inline"
       inkscape:export-filename="/Users/psenger/Desktop/Epping Twlight Market Photos/NewLogo.png"
       inkscape:export-xdpi="600"
       inkscape:export-ydpi="600" />
  </g>
  <g
     inkscape:groupmode="layer"
     id="layer5"
     inkscape:label="Three"
     style="display:inline">
    <path
       style="fill:#008080;stroke:none"
       d="m -1768.7966,-2317.4903 c 2.1419,8.5458 15.5722,9.1635 24.2935,10.4115 38.0671,5.4474 77.3647,-3.9934 114.5264,-13.882 36.4048,-9.6872 79.0235,-15.8603 104.1149,-43.9597 89.9656,-100.7507 114.5264,-388.6956 114.5264,-388.6956 0,0 -55.4563,115.3732 -90.2329,168.8975 -27.6949,42.6249 -58.9733,83.1932 -93.7035,120.3106 -29.2965,31.3103 -61.4381,60.2497 -96.017,85.6055 -17.0125,12.4748 -38.4647,18.5338 -54.3711,32.3914 -9.3085,8.1095 -26.1382,16.9456 -23.1367,28.9208 z"
       id="path3085"
       inkscape:connector-curvature="0"
       sodipodi:nodetypes="aaaacaaaaa"
       inkscape:export-filename="/Users/psenger/Desktop/Epping Twlight Market Photos/NewLogo.png"
       inkscape:export-xdpi="600"
       inkscape:export-ydpi="600" />
  </g>
  <g
     inkscape:groupmode="layer"
     id="layer9"
     inkscape:label="Seven"
     style="display:inline">
    <path
       sodipodi:nodetypes="aaaacaaaaa"
       inkscape:connector-curvature="0"
       id="path3099"
       d="m -1050.3113,-2319.1263 c -2.1419,8.5458 -15.5722,9.1635 -24.2935,10.4115 -38.0671,5.4474 -77.3647,-3.9934 -114.5264,-13.882 -36.4048,-9.6872 -78.8195,-16.0439 -104.1149,-43.9597 -90.3987,-99.7631 -119.7822,-385.7119 -119.7822,-385.7119 0,0 59.8828,112.9615 95.4887,165.9138 28.3641,42.1825 58.9733,83.1932 93.7035,120.3106 29.2965,31.3103 61.4381,60.2497 96.017,85.6055 17.0125,12.4748 38.4647,18.5338 54.3711,32.3914 9.3085,8.1095 26.1382,16.9456 23.1367,28.9208 z"
       style="fill:#008080;stroke:none;display:inline"
       inkscape:export-filename="/Users/psenger/Desktop/Epping Twlight Market Photos/NewLogo.png"
       inkscape:export-xdpi="600"
       inkscape:export-ydpi="600" />
  </g>
  <g
     inkscape:groupmode="layer"
     id="layer10"
     inkscape:label="Eight"
     style="display:inline">
    <path
       sodipodi:nodetypes="aaaaaaasaaaaaa"
       inkscape:connector-curvature="0"
       id="path3106"
       d="m -996.225,-2385.7434 c 11.6414,11.8138 23.5344,33.1853 15.0389,47.4301 -8.4448,14.1598 -32.1272,10.1994 -48.587,9.2547 -12.9068,-0.7408 -25.5342,-5.6319 -37.0186,-11.5683 -61.5928,-31.8381 -117.1295,-76.3486 -165.427,-126.0948 -41.9668,-43.2256 -72.6856,-96.2442 -105.2718,-146.9177 -18.6392,-28.9851 -35.975,-58.8782 -51.479,-89.6545 -8.0611,-16.0018 -29.0894,-56.3515 -21.5289,-49.2531 43.2796,40.6345 50.1203,60.4483 74.1648,91.4775 22.6279,29.2011 41.3564,61.5007 65.9394,89.0761 27.0506,30.3433 57.4901,57.7032 89.0761,83.2919 30.3392,24.5786 61.8907,48.1235 96.0171,67.0963 20.5338,11.4159 42.8224,19.4147 64.7826,27.764 7.9786,3.0335 18.3022,2.0179 24.2934,8.0978 z"
       style="fill:#00ffff;stroke:none;display:inline"
       inkscape:export-filename="/Users/psenger/Desktop/Epping Twlight Market Photos/NewLogo.png"
       inkscape:export-xdpi="600"
       inkscape:export-ydpi="600" />
  </g>
  <g
     inkscape:groupmode="layer"
     id="layer11"
     inkscape:label="Nine"
     style="display:inline" />
  <g
     inkscape:groupmode="layer"
     id="layer3"
     inkscape:label="Two"
     style="display:inline">
    <path
       style="fill:#00ffff;stroke:none;display:inline"
       d="m -1825.4813,-2385.7434 c -11.6414,11.8138 -23.5344,33.1853 -15.0389,47.4301 8.4448,14.1598 32.1272,10.1994 48.587,9.2547 12.9068,-0.7408 25.5342,-5.6319 37.0186,-11.5683 61.5928,-31.8381 117.1295,-76.3486 165.427,-126.0948 41.9668,-43.2256 73.3419,-95.8282 105.2718,-146.9177 18.0489,-28.8791 33.6896,-59.25 48.5709,-89.8819 7.4069,-15.2464 31.8341,-60.1172 20.2247,-46.6562 -38.772,44.9557 -47.0577,59.0783 -69.9525,89.108 -22.3979,29.378 -41.3564,61.5007 -65.9394,89.0761 -27.0506,30.3433 -57.4901,57.7032 -89.0761,83.2919 -30.3392,24.5786 -61.8907,48.1235 -96.0171,67.0963 -20.5338,11.4159 -42.8224,19.4147 -64.7826,27.764 -7.9786,3.0335 -18.3022,2.0179 -24.2934,8.0978 z"
       id="path3054"
       inkscape:connector-curvature="0"
       sodipodi:nodetypes="aaaaaaasaaaaaa"
       inkscape:export-filename="/Users/psenger/Desktop/Epping Twlight Market Photos/NewLogo.png"
       inkscape:export-xdpi="600"
       inkscape:export-ydpi="600" />
    <path
       sodipodi:nodetypes="zzsz"
       inkscape:connector-curvature="0"
       id="path3112"
       d="m -949.56393,-2451.4783 c -204.33707,-65.7006 -425.74317,-285.2157 -460.80857,-301.0294 -35.0654,-15.8137 244.0922,374.1089 404.6286,366.27 28.66447,-1.3997 260.51717,0.46 56.17997,-65.2406 z"
       style="fill:#008080;stroke:none;display:inline"
       inkscape:export-filename="/Users/psenger/Desktop/Epping Twlight Market Photos/NewLogo.png"
       inkscape:export-xdpi="600"
       inkscape:export-ydpi="600" />
  </g>
  <g
     inkscape:groupmode="layer"
     id="layer4"
     inkscape:label="One"
     style="display:inline">
    <path
       style="fill:#008080;stroke:none;display:inline"
       d="m -1881.7546,-2448.9343 c 204.3371,-65.7006 423.2794,-265.3242 466.5911,-302.406 43.3117,-37.0818 -249.8747,375.4855 -410.4111,367.6466 -28.6645,-1.3997 -260.5172,0.46 -56.18,-65.2406 z"
       id="path3052"
       inkscape:connector-curvature="0"
       sodipodi:nodetypes="zzsz"
       inkscape:export-filename="/Users/psenger/Desktop/Epping Twlight Market Photos/NewLogo.png"
       inkscape:export-xdpi="600"
       inkscape:export-ydpi="600" />
  </g>
</svg>
